<svg id="visual" viewBox="0 0 900 900" width="900" height="900" xmlns="http://www.w3.org/2000/svg" xmlns:xlink="http://www.w3.org/1999/xlink" version="1.1"><rect x="0" y="0" width="900" height="900" fill="#001220"></rect><defs><linearGradient id="grad1_0" x1="0%" y1="100%" x2="100%" y2="0%"><stop offset="30%" stop-color="#fbae3c" stop-opacity="1"></stop><stop offset="70%" stop-color="#fbae3c" stop-opacity="1"></stop></linearGradient></defs><defs><linearGradient id="grad1_1" x1="0%" y1="100%" x2="100%" y2="0%"><stop offset="30%" stop-color="#fbae3c" stop-opacity="1"></stop><stop offset="70%" stop-color="#e1685e" stop-opacity="1"></stop></linearGradient></defs><defs><linearGradient id="grad1_2" x1="0%" y1="100%" x2="100%" y2="0%"><stop offset="30%" stop-color="#96446e" stop-opacity="1"></stop><stop offset="70%" stop-color="#e1685e" stop-opacity="1"></stop></linearGradient></defs><defs><linearGradient id="grad1_3" x1="0%" y1="100%" x2="100%" y2="0%"><stop offset="30%" stop-color="#96446e" stop-opacity="1"></stop><stop offset="70%" stop-color="#3d3056" stop-opacity="1"></stop></linearGradient></defs><defs><linearGradient id="grad1_4" x1="0%" y1="100%" x2="100%" y2="0%"><stop offset="30%" stop-color="#001220" stop-opacity="1"></stop><stop offset="70%" stop-color="#3d3056" stop-opacity="1"></stop></linearGradient></defs><defs><linearGradient id="grad2_0" x1="0%" y1="100%" x2="100%" y2="0%"><stop offset="30%" stop-color="#fbae3c" stop-opacity="1"></stop><stop offset="70%" stop-color="#fbae3c" stop-opacity="1"></stop></linearGradient></defs><defs><linearGradient id="grad2_1" x1="0%" y1="100%" x2="100%" y2="0%"><stop offset="30%" stop-color="#e1685e" stop-opacity="1"></stop><stop offset="70%" stop-color="#fbae3c" stop-opacity="1"></stop></linearGradient></defs><defs><linearGradient id="grad2_2" x1="0%" y1="100%" x2="100%" y2="0%"><stop offset="30%" stop-color="#e1685e" stop-opacity="1"></stop><stop offset="70%" stop-color="#96446e" stop-opacity="1"></stop></linearGradient></defs><defs><linearGradient id="grad2_3" x1="0%" y1="100%" x2="100%" y2="0%"><stop offset="30%" stop-color="#3d3056" stop-opacity="1"></stop><stop offset="70%" stop-color="#96446e" stop-opacity="1"></stop></linearGradient></defs><defs><linearGradient id="grad2_4" x1="0%" y1="100%" x2="100%" y2="0%"><stop offset="30%" stop-color="#3d3056" stop-opacity="1"></stop><stop offset="70%" stop-color="#001220" stop-opacity="1"></stop></linearGradient></defs><g transform="translate(900, 900)"><path d="M-540.9 0C-511 -49.5 -481 -99 -464.1 -150.8C-447.2 -202.6 -443.3 -256.7 -422.3 -306.8C-401.3 -357 -363.3 -403.2 -318 -437.6C-272.6 -472 -219.9 -494.5 -165.6 -509.8C-111.4 -525 -55.7 -533 0 -540.9L0 0Z" fill="#18223c"></path><path d="M-432.7 0C-408.8 -39.6 -384.8 -79.2 -371.3 -120.6C-357.7 -162.1 -354.6 -205.3 -337.8 -245.5C-321.1 -285.6 -290.7 -322.6 -254.4 -350.1C-218.1 -377.6 -175.9 -395.6 -132.5 -407.8C-89.1 -420 -44.6 -426.4 0 -432.7L0 0Z" fill="#683a67"></path><path d="M-324.6 0C-306.6 -29.7 -288.6 -59.4 -278.5 -90.5C-268.3 -121.6 -266 -154 -253.4 -184.1C-240.8 -214.2 -218 -241.9 -190.8 -262.6C-163.5 -283.2 -131.9 -296.7 -99.4 -305.9C-66.8 -315 -33.4 -319.8 0 -324.6L0 0Z" fill="#c0526a"></path><path d="M-216.4 0C-204.4 -19.8 -192.4 -39.6 -185.6 -60.3C-178.9 -81 -177.3 -102.7 -168.9 -122.7C-160.5 -142.8 -145.3 -161.3 -127.2 -175.1C-109 -188.8 -87.9 -197.8 -66.3 -203.9C-44.6 -210 -22.3 -213.2 0 -216.4L0 0Z" fill="#f6884d"></path><path d="M-108.2 0C-102.2 -9.9 -96.2 -19.8 -92.8 -30.2C-89.4 -40.5 -88.7 -51.3 -84.5 -61.4C-80.3 -71.4 -72.7 -80.6 -63.6 -87.5C-54.5 -94.4 -44 -98.9 -33.1 -102C-22.3 -105 -11.1 -106.6 0 -108.2L0 0Z" fill="#fbae3c"></path></g><g transform="translate(0, 0)"><path d="M540.9 0C539.7 59 538.5 118.1 514.5 167.2C490.5 216.2 443.7 255.4 403.7 293.3C363.7 331.3 330.5 368 291.5 401.3C252.6 434.5 207.8 464.3 158.2 486.9C108.7 509.6 54.3 525.3 0 540.9L0 0Z" fill="#18223c"></path><path d="M432.7 0C431.8 47.2 430.8 94.5 411.6 133.7C392.4 173 354.9 204.3 323 234.6C291 265 264.4 294.4 233.2 321C202 347.6 166.2 371.4 126.6 389.6C86.9 407.7 43.5 420.2 0 432.7L0 0Z" fill="#683a67"></path><path d="M324.6 0C323.8 35.4 323.1 70.8 308.7 100.3C294.3 129.7 266.2 153.2 242.2 176C218.2 198.8 198.3 220.8 174.9 240.8C151.5 260.7 124.7 278.6 94.9 292.2C65.2 305.8 32.6 315.2 0 324.6L0 0Z" fill="#c0526a"></path><path d="M216.4 0C215.9 23.6 215.4 47.2 205.8 66.9C196.2 86.5 177.5 102.1 161.5 117.3C145.5 132.5 132.2 147.2 116.6 160.5C101 173.8 83.1 185.7 63.3 194.8C43.5 203.9 21.7 210.1 0 216.4L0 0Z" fill="#f6884d"></path><path d="M108.2 0C107.9 11.8 107.7 23.6 102.9 33.4C98.1 43.2 88.7 51.1 80.7 58.7C72.7 66.3 66.1 73.6 58.3 80.3C50.5 86.9 41.6 92.9 31.6 97.4C21.7 101.9 10.9 105.1 0 108.2L0 0Z" fill="#fbae3c"></path></g></svg>