<svg width="300" height="300" viewBox="0 0 300 300" fill="none" xmlns="http://www.w3.org/2000/svg">
<g clip-path="url(#clip0_18_28)">
<path fill-rule="evenodd" clip-rule="evenodd" d="M0 225C0 266.421 38.8553 300 86.7857 300H213.214C261.144 300 300 266.421 300 225V75C300 33.5786 261.144 0 213.214 0H86.7857C38.8553 0 0 33.5786 0 75V225ZM63.0708 27.0717C63.7565 26.3855 64.6864 26 65.6561 26L234.347 26.0183C235.104 26.0189 235.842 26.2546 236.459 26.6929C237.077 27.1312 237.543 27.7504 237.794 28.4652C238.044 29.18 238.067 29.955 237.859 30.6834C237.651 31.4118 237.222 32.0575 236.632 32.5316L67.9411 167.006C67.1823 167.61 66.2149 167.888 65.2516 167.778C64.2883 167.668 63.408 167.18 62.8043 166.421C62.2681 165.75 62 164.987 62 164.134V29.6592C62 28.6887 62.3852 27.758 63.0708 27.0717ZM62.6398 246.794C62.2133 246.172 62 245.483 62 244.727V188.339C61.9992 187.782 62.1256 187.231 62.3695 186.73C62.6134 186.23 62.9685 185.791 63.4076 185.448L112.582 146.99C113.225 146.491 114.016 146.22 114.83 146.222H204.148C204.928 146.222 205.689 146.472 206.317 146.936C206.945 147.4 207.409 148.053 207.64 148.799C207.871 149.545 207.857 150.346 207.6 151.084C207.343 151.822 206.857 152.458 206.213 152.9L67.7217 247.745C66.9218 248.294 65.937 248.501 64.9839 248.323C64.0309 248.145 63.1877 247.595 62.6398 246.794ZM62.4182 267.202C62.6919 266.68 63.0878 266.231 63.5721 265.895L114.757 230.346C115.305 229.966 115.947 229.742 116.612 229.701C117.278 229.659 117.942 229.8 118.534 230.109C119.125 230.418 119.62 230.883 119.966 231.454C120.312 232.025 120.496 232.679 120.497 233.347V270.341C120.497 271.311 120.112 272.242 119.426 272.928C118.741 273.614 117.811 274 116.841 274H65.5098C63.5721 274 62 272.427 62 270.487V268.895C62.001 268.306 62.1444 267.725 62.4182 267.202Z" fill="#85D0FF"/>
</g>
<defs>
<clipPath id="clip0_18_28">
<rect width="300" height="300" fill="white"/>
</clipPath>
</defs>
</svg>
